:FULLY-SPECIFIED
:FORCE-ALL-JOINTS-BE-3DOF
:DEGREES
1019
root 1.14834 15.1588 32.4591 4.87027 -3.49709 3.54692
lfemur 8.52085 0.532266 5.74964
ltibia -1.48932e-14 0 0
lfoot -30.1511 -11.067 -2.18881e-05
ltoes -34.3777 0 0
rfemur -31.6035 -15.9114 -6.02365
rtibia 50.2608 -0 0
rfoot -22.257 5.01549 4.46991e-06
rtoes -42.1076 0 0
lowerback -1.49081 -0.13407 0.223923
upperback -0.539049 -0.164356 -5.97759
thorax 0.263471 -0.0889589 -6.3277
lowerneck -7.15415 0.90642 6.32368
upperneck 1.65484 0.514777 3.55677
head 1.74348 0.394322 0.066333
lclavicle 2.19982e-15 -1.17481e-14 -1.82426e-32
lhumerus -58.665 -46.4863 115.296
lradius 55.6919 -0 0
lwrist 25.2407 0 0
lhand 37.2957 24.9901 -3.77504e-07
lfingers 7.12502 -0 0
lthumb 60.1181 38.6458 -3.43871e-07
rclavicle 2.19982e-15 -1.17481e-14 -1.82426e-32
rhumerus 2.78083 -23.932 0.205155
rradius 27.6097 -0 0
rwrist -10.1799 0 0
rhand -30.7309 -42.8361 0.000958574
rfingers 7.12502 -0 0
rthumb -4.02325 -72.7773 0.000918606
1020
root 1.14904 15.1589 32.4583 4.8594 -3.47228 3.5346
lfemur 8.51693 0.506134 5.76201
ltibia -1.59484e-14 0 0
lfoot -30.1521 -11.0533 -1.67225e-05
ltoes -34.3883 0 0
rfemur -31.5748 -15.9203 -6.01869
rtibia 50.2486 -0 0
rfoot -22.2497 5.01586 3.41502e-06
rtoes -42.1121 0 0
lowerback -1.48938 -0.128028 0.213609
upperback -0.535283 -0.155925 -5.97902
thorax 0.267579 -0.0845569 -6.32315
lowerneck -7.1645 0.901593 6.3332
upperneck 1.66725 0.505868 3.56161
head 1.74929 0.390617 0.0660219
lclavicle 2.27159e-15 -1.15929e-14 -1.39374e-32
lhumerus -58.6724 -46.5154 115.307
lradius 55.7056 -0 0
lwrist 25.2422 0 0
lhand 37.2957 25.0008 -2.88413e-07
lfingers 7.12502 -0 0
lthumb 60.1181 38.6565 -2.62718e-07
rclavicle 2.27159e-15 -1.15929e-14 -1.39374e-32
rhumerus 2.76058 -23.9088 0.212914
rradius 27.6011 -0 0
rwrist -10.1562 0 0
rhand -30.7155 -42.7982 0.000732348
rfingers 7.12502 -0 0
rthumb -4.00834 -72.7397 0.000701812
1021
root 1.14965 15.159 32.4577 4.84994 -3.45067 3.52388
lfemur 8.51352 0.483384 5.77278
ltibia -1.68671e-14 0 0
lfoot -30.153 -11.0414 -1.20353e-05
ltoes -34.3975 0 0
rfemur -31.5498 -15.928 -6.01437
rtibia 50.238 -0 0
rfoot -22.2433 5.01618 2.45782e-06
rtoes -42.116 0 0
lowerback -1.48814 -0.122767 0.20463
upperback -0.532004 -0.148584 -5.98027
thorax 0.271156 -0.0807247 -6.31919
lowerneck -7.17352 0.897392 6.34149
upperneck 1.67804 0.498111 3.56583
head 1.75435 0.387392 0.0657507
lclavicle 2.33407e-15 -1.14578e-14 -1.00308e-32
lhumerus -58.6788 -46.5407 115.317
lradius 55.7176 -0 0
lwrist 25.2435 0 0
lhand 37.2956 25.0102 -2.07573e-07
lfingers 7.12502 -0 0
lthumb 60.118 38.6659 -1.8908e-07
rclavicle 2.33407e-15 -1.14578e-14 -1.00308e-32
rhumerus 2.74296 -23.8885 0.219661
rradius 27.5937 -0 0
rwrist -10.1355 0 0
rhand -30.702 -42.7652 0.000527074
rfingers 7.12502 -0 0
rthumb -3.99536 -72.707 0.000505097
1022
root 1.15016 15.1591 32.4571 4.84198 -3.43251 3.51486
lfemur 8.51064 0.464248 5.78185
ltibia -1.76398e-14 0 0
lfoot -30.1537 -11.0313 -7.95576e-06
ltoes -34.4053 0 0
rfemur -31.5288 -15.9345 -6.01075
rtibia 50.2291 -0 0
rfoot -22.2379 5.01645 1.6247e-06
rtoes -42.1192 0 0
lowerback -1.4871 -0.118342 0.197077
upperback -0.529246 -0.14241 -5.98132
thorax 0.274165 -0.0775014 -6.31586
lowerneck -7.1811 0.89386 6.34846
upperneck 1.68713 0.491585 3.56937
head 1.75861 0.384678 0.0655224
lclavicle 2.38663e-15 -1.13442e-14 -6.63071e-33
lhumerus -58.6843 -46.562 115.326
lradius 55.7276 -0 0
lwrist 25.2446 0 0
lhand 37.2956 25.018 -1.37213e-07
lfingers 7.12502 -0 0
lthumb 60.118 38.6738 -1.24988e-07
rclavicle 2.38663e-15 -1.13442e-14 -6.63071e-33
rhumerus 2.72814 -23.8715 0.225331
rradius 27.5874 -0 0
rwrist -10.1181 0 0
rhand -30.6907 -42.7374 0.000348412
rfingers 7.12502 -0 0
rthumb -3.98444 -72.6794 0.000333884
1023
root 1.15056 15.1592 32.4567 4.83562 -3.41799 3.50765
lfemur 8.50834 0.448958 5.78909
ltibia -1.82572e-14 0 0
lfoot -30.1542 -11.0233 -4.60635e-06
ltoes -34.4115 0 0
rfemur -31.512 -15.9397 -6.00785
rtibia 50.222 -0 0
rfoot -22.2336 5.01667 9.40695e-07
rtoes -42.1218 0 0
lowerback -1.48626 -0.114806 0.191042
upperback -0.527043 -0.137476 -5.98216
thorax 0.276569 -0.0749261 -6.3132
lowerneck -7.18716 0.891038 6.35403
upperneck 1.69438 0.486371 3.5722
head 1.76201 0.382511 0.0653398
lclavicle 2.42862e-15 -1.12534e-14 -3.83916e-33
lhumerus -58.6886 -46.579 115.333
lradius 55.7357 -0 0
lwrist 25.2454 0 0
lhand 37.2956 25.0243 -7.94458e-08
lfingers 7.12502 -0 0
lthumb 60.118 38.6801 -7.23679e-08
rclavicle 2.42862e-15 -1.12534e-14 -3.83916e-33
rhumerus 2.7163 -23.8579 0.229856
rradius 27.5824 -0 0
rwrist -10.1042 0 0
rhand -30.6817 -42.7153 0.000201728
rfingers 7.12502 -0 0
rthumb -3.97571 -72.6574 0.000193317
1024
root 1.15086 15.1593 32.4564 4.83095 -3.40735 3.50236
lfemur 8.50665 0.437749 5.7944
ltibia -1.87099e-14 0 0
lfoot -30.1547 -11.0174 -2.09997e-06
ltoes -34.416 0 0
rfemur -31.4997 -15.9435 -6.00573
rtibia 50.2168 -0 0
rfoot -22.2304 5.01683 4.28849e-07
rtoes -42.1237 0 0
lowerback -1.48565 -0.112214 0.186618
upperback -0.525428 -0.133859 -5.98277
thorax 0.278332 -0.0730381 -6.31125
lowerneck -7.1916 0.888969 6.35812
upperneck 1.6997 0.482548 3.57428
head 1.7645 0.380921 0.0652058
lclavicle 2.45941e-15 -1.11868e-14 -1.75022e-33
lhumerus -58.6918 -46.5915 115.338
lradius 55.7415 -0 0
lwrist 25.2461 0 0
lhand 37.2956 25.0289 -3.62181e-08
lfingers 7.12502 -0 0
lthumb 60.118 38.6847 -3.29914e-08
rclavicle 2.45941e-15 -1.11868e-14 -1.75022e-33
rhumerus 2.70763 -23.8479 0.233172
rradius 27.5787 -0 0
rwrist -10.094 0 0
rhand -30.6751 -42.699 9.19643e-05
rfingers 7.12502 -0 0
rthumb -3.96932 -72.6413 8.81298e-05
1025
root 1.15105 15.1593 32.4562 4.82808 -3.4008 3.49911
lfemur 8.50561 0.430853 5.79767
ltibia -1.89884e-14 0 0
lfoot -30.1549 -11.0138 -5.36583e-07
ltoes -34.4188 0 0
rfemur -31.4921 -15.9458 -6.00442
rtibia 50.2136 -0 0
rfoot -22.2285 5.01693 1.09579e-07
rtoes -42.1249 0 0
lowerback -1.48528 -0.110619 0.183896
upperback -0.524434 -0.131634 -5.98315
thorax 0.279416 -0.0718765 -6.31005
lowerneck -7.19434 0.887697 6.36063
upperneck 1.70297 0.480196 3.57555
head 1.76604 0.379943 0.0651234
lclavicle 2.47835e-15 -1.11459e-14 -4.47215e-34
lhumerus -58.6937 -46.5992 115.341
lradius 55.7452 -0 0
lwrist 25.2465 0 0
lhand 37.2956 25.0317 -9.25445e-09
lfingers 7.12502 -0 0
lthumb 60.118 38.6875 -8.42996e-09
rclavicle 2.47835e-15 -1.11459e-14 -4.47215e-34
rhumerus 2.70229 -23.8418 0.235211
rradius 27.5765 -0 0
rwrist -10.0877 0 0
rhand -30.671 -42.689 2.34986e-05
rfingers 7.12502 -0 0
rthumb -3.96538 -72.6314 2.25188e-05
1026
root 1.15111 15.1593 32.4561 4.8271 -3.39857 363.498
lfemur 8.50526 0.428502 5.79878
ltibia -1.90833e-14 0 0
lfoot -30.155 -11.0126 0
ltoes -34.4198 0 0
rfemur -31.4895 -15.9466 -6.00398
rtibia 50.2125 0 0
rfoot -22.2278 5.01696 0
rtoes -42.1253 0 0
lowerback -1.48515 -0.110075 0.182968
upperback -0.524095 -0.130875 -5.98328
thorax 0.279786 -0.0714806 -6.30964
lowerneck -7.19527 0.887263 6.36149
upperneck 1.70409 0.479394 3.57599
head 1.76656 0.37961 0.0650953
lclavicle 2.48481e-15 -1.11319e-14 0
lhumerus -58.6944 -46.6018 115.342
lradius 55.7464 0 0
lwrist 25.2466 0 0
lhand 37.2956 25.0327 0
lfingers 7.12502 0 0
lthumb 60.118 38.6885 0
rclavicle 2.48481e-15 -1.11319e-14 0
rhumerus 2.70047 -23.8397 0.235906
rradius 27.5757 0 0
rwrist -10.0856 0 0
rhand -30.6696 -42.6856 0
rfingers 7.12502 0 0
rthumb -3.96404 -792.628 0
1027
root 1.15125 15.1593 32.4564 4.82732 -3.39868 3.49762
lfemur 8.50497 0.428779 5.79826
ltibia 0.00236184 -0 0
lfoot -30.1568 -11.0123 -2.26216e-06
ltoes -34.4196 0 0
rfemur -31.4882 -15.9458 -6.0045
rtibia 50.2117 -0 0
rfoot -22.2271 5.01772 2.62513e-06
rtoes -42.1229 0 0
lowerback -1.48601 -0.109976 0.18203
upperback -0.524045 -0.1307 -5.98316
thorax 0.280339 -0.0713823 -6.30897
lowerneck -7.19499 0.886945 6.36157
upperneck 1.70332 0.479017 3.57624
head 1.76625 0.379398 0.065145
lclavicle 2.50453e-15 -1.1157e-14 2.45846e-33
lhumerus -58.6939 -46.6019 115.342
lradius 55.7464 -0 0
lwrist 25.2472 0 0
lhand 37.296 25.0332 1.10395e-06
lfingers 7.12502 -0 0
lthumb 60.1184 38.6887 2.78109e-07
rclavicle 2.50453e-15 -1.1157e-14 2.45846e-33
rhumerus 2.69928 -23.8387 0.236717
rradius 27.5756 -0 0
rwrist -10.0843 0 0
rhand -30.6696 -42.6843 -8.23883e-08
rfingers 7.12502 -0 0
rthumb -3.96405 -72.6267 -7.98495e-08
